<svg width="24" height="24" viewBox="0 0 24 24" fill="none" xmlns="http://www.w3.org/2000/svg">
<g clip-path="url(#clip0_2133_4033)">
<path d="M19 22.5C19.2053 21.6513 19.6406 20.8755 20.2581 20.2581C20.8755 19.6406 21.6513 19.2053 22.5 19C21.6513 18.7947 20.8755 18.3594 20.2581 17.7419C19.6406 17.1245 19.2053 16.3487 19 15.5C18.7947 16.3487 18.3594 17.1245 17.7419 17.7419C17.1245 18.3594 16.3487 18.7947 15.5 19C16.3487 19.2053 17.1245 19.6406 17.7419 20.2581C18.3594 20.8755 18.7947 21.6513 19 22.5Z" stroke="white" stroke-width="1.5" stroke-linecap="round" stroke-linejoin="round"/>
<path d="M20 11.5V9C20 8.46957 19.7893 7.96086 19.4142 7.58579C19.0391 7.21071 18.5304 7 18 7H6C5.46957 7 4.96086 7.21071 4.58579 7.58579C4.21071 7.96086 4 8.46957 4 9V14C4 14.5304 4.21071 15.0391 4.58579 15.4142C4.96086 15.7893 5.46957 16 6 16H13" stroke="white" stroke-width="1.5" stroke-linecap="round" stroke-linejoin="round"/>
</g>
<defs>
<clipPath id="clip0_2133_4033">
<rect width="24" height="24" fill="white"/>
</clipPath>
</defs>
</svg>
